<mxfile host="app.diagrams.net" modified="2021-11-11T18:30:01.913Z" agent="5.0 (Windows NT 10.0; Win64; x64) AppleWebKit/537.36 (KHTML, like Gecko) Chrome/95.0.4638.69 Safari/537.36" etag="e6HPl2NBHwiCEartEPlc" version="15.7.3" type="github">
  <diagram id="-w3jM8gkj0r7E4O4dPZ2" name="Page-1">
    <mxGraphModel dx="1422" dy="762" grid="1" gridSize="10" guides="1" tooltips="1" connect="1" arrows="1" fold="1" page="1" pageScale="1" pageWidth="827" pageHeight="1169" math="0" shadow="0">
      <root>
        <mxCell id="0" />
        <mxCell id="1" parent="0" />
        <mxCell id="2Jl1TyK4nRtWYxotQvZU-1" value="" style="rounded=1;whiteSpace=wrap;html=1;absoluteArcSize=1;arcSize=14;strokeWidth=2;fillColor=#dae8fc;strokeColor=#6c8ebf;" vertex="1" parent="1">
          <mxGeometry x="110" y="30" width="550" height="440" as="geometry" />
        </mxCell>
        <mxCell id="2Jl1TyK4nRtWYxotQvZU-2" value="&lt;font style=&quot;font-size: 17px&quot;&gt;&lt;b&gt;HOST 1&lt;/b&gt;&lt;/font&gt;" style="text;html=1;resizable=0;autosize=1;align=center;verticalAlign=middle;points=[];fillColor=none;strokeColor=none;rounded=0;" vertex="1" parent="1">
          <mxGeometry x="323.5" y="40" width="80" height="20" as="geometry" />
        </mxCell>
        <mxCell id="2Jl1TyK4nRtWYxotQvZU-4" value="" style="shape=mxgraph.cisco.switches.layer_2_remote_switch;sketch=0;html=1;pointerEvents=1;dashed=0;fillColor=#036897;strokeColor=#ffffff;strokeWidth=2;verticalLabelPosition=bottom;verticalAlign=top;align=center;outlineConnect=0;fontSize=17;" vertex="1" parent="1">
          <mxGeometry x="313" y="120" width="101" height="50" as="geometry" />
        </mxCell>
        <mxCell id="2Jl1TyK4nRtWYxotQvZU-5" value="&lt;font style=&quot;font-size: 12px&quot;&gt;Virtual Linux Bridge&lt;/font&gt;" style="text;html=1;resizable=0;autosize=1;align=center;verticalAlign=middle;points=[];fillColor=none;strokeColor=none;rounded=0;fontSize=17;" vertex="1" parent="1">
          <mxGeometry x="303.5" y="80" width="120" height="30" as="geometry" />
        </mxCell>
        <mxCell id="2Jl1TyK4nRtWYxotQvZU-15" style="edgeStyle=none;rounded=0;orthogonalLoop=1;jettySize=auto;html=1;exitX=0.5;exitY=0;exitDx=0;exitDy=0;exitPerimeter=0;entryX=0.9;entryY=-0.05;entryDx=0;entryDy=0;entryPerimeter=0;fontSize=12;" edge="1" parent="1" source="2Jl1TyK4nRtWYxotQvZU-6" target="2Jl1TyK4nRtWYxotQvZU-9">
          <mxGeometry relative="1" as="geometry" />
        </mxCell>
        <mxCell id="2Jl1TyK4nRtWYxotQvZU-6" value="" style="shape=mxgraph.cisco.servers.www_server;sketch=0;html=1;pointerEvents=1;dashed=0;fillColor=#036897;strokeColor=#ffffff;strokeWidth=2;verticalLabelPosition=bottom;verticalAlign=top;align=center;outlineConnect=0;fontSize=12;" vertex="1" parent="1">
          <mxGeometry x="170" y="340" width="66" height="67" as="geometry" />
        </mxCell>
        <mxCell id="2Jl1TyK4nRtWYxotQvZU-16" style="edgeStyle=none;rounded=0;orthogonalLoop=1;jettySize=auto;html=1;entryX=0.563;entryY=-0.1;entryDx=0;entryDy=0;entryPerimeter=0;fontSize=12;" edge="1" parent="1" source="2Jl1TyK4nRtWYxotQvZU-7" target="2Jl1TyK4nRtWYxotQvZU-10">
          <mxGeometry relative="1" as="geometry" />
        </mxCell>
        <mxCell id="2Jl1TyK4nRtWYxotQvZU-7" value="" style="shape=mxgraph.cisco.servers.www_server;sketch=0;html=1;pointerEvents=1;dashed=0;fillColor=#036897;strokeColor=#ffffff;strokeWidth=2;verticalLabelPosition=bottom;verticalAlign=top;align=center;outlineConnect=0;fontSize=12;" vertex="1" parent="1">
          <mxGeometry x="320" y="340" width="66" height="67" as="geometry" />
        </mxCell>
        <mxCell id="2Jl1TyK4nRtWYxotQvZU-20" style="edgeStyle=none;rounded=0;orthogonalLoop=1;jettySize=auto;html=1;entryX=0.275;entryY=0;entryDx=0;entryDy=0;entryPerimeter=0;fontSize=12;" edge="1" parent="1" source="2Jl1TyK4nRtWYxotQvZU-8" target="2Jl1TyK4nRtWYxotQvZU-11">
          <mxGeometry relative="1" as="geometry" />
        </mxCell>
        <mxCell id="2Jl1TyK4nRtWYxotQvZU-8" value="" style="shape=mxgraph.cisco.servers.www_server;sketch=0;html=1;pointerEvents=1;dashed=0;fillColor=#036897;strokeColor=#ffffff;strokeWidth=2;verticalLabelPosition=bottom;verticalAlign=top;align=center;outlineConnect=0;fontSize=12;" vertex="1" parent="1">
          <mxGeometry x="460" y="340" width="66" height="67" as="geometry" />
        </mxCell>
        <mxCell id="2Jl1TyK4nRtWYxotQvZU-9" value="eth0" style="text;html=1;resizable=0;autosize=1;align=center;verticalAlign=middle;points=[];fillColor=none;strokeColor=none;rounded=0;fontSize=12;" vertex="1" parent="1">
          <mxGeometry x="280" y="150" width="40" height="20" as="geometry" />
        </mxCell>
        <mxCell id="2Jl1TyK4nRtWYxotQvZU-10" value="eth1" style="text;html=1;resizable=0;autosize=1;align=center;verticalAlign=middle;points=[];fillColor=none;strokeColor=none;rounded=0;fontSize=12;" vertex="1" parent="1">
          <mxGeometry x="323.5" y="170" width="40" height="20" as="geometry" />
        </mxCell>
        <mxCell id="2Jl1TyK4nRtWYxotQvZU-11" value="eth2" style="text;html=1;resizable=0;autosize=1;align=center;verticalAlign=middle;points=[];fillColor=none;strokeColor=none;rounded=0;fontSize=12;" vertex="1" parent="1">
          <mxGeometry x="394" y="150" width="40" height="20" as="geometry" />
        </mxCell>
        <mxCell id="2Jl1TyK4nRtWYxotQvZU-12" value="eth0" style="text;html=1;resizable=0;autosize=1;align=center;verticalAlign=middle;points=[];fillColor=none;strokeColor=none;rounded=0;fontSize=12;" vertex="1" parent="1">
          <mxGeometry x="196" y="320" width="40" height="20" as="geometry" />
        </mxCell>
        <mxCell id="2Jl1TyK4nRtWYxotQvZU-13" value="eth0" style="text;html=1;resizable=0;autosize=1;align=center;verticalAlign=middle;points=[];fillColor=none;strokeColor=none;rounded=0;fontSize=12;" vertex="1" parent="1">
          <mxGeometry x="333" y="320" width="40" height="20" as="geometry" />
        </mxCell>
        <mxCell id="2Jl1TyK4nRtWYxotQvZU-17" value="" style="edgeStyle=none;rounded=0;orthogonalLoop=1;jettySize=auto;html=1;fontSize=12;" edge="1" parent="1" source="2Jl1TyK4nRtWYxotQvZU-14" target="2Jl1TyK4nRtWYxotQvZU-8">
          <mxGeometry relative="1" as="geometry" />
        </mxCell>
        <mxCell id="2Jl1TyK4nRtWYxotQvZU-14" value="eth0" style="text;html=1;resizable=0;autosize=1;align=center;verticalAlign=middle;points=[];fillColor=none;strokeColor=none;rounded=0;fontSize=12;" vertex="1" parent="1">
          <mxGeometry x="473" y="320" width="40" height="20" as="geometry" />
        </mxCell>
      </root>
    </mxGraphModel>
  </diagram>
</mxfile>
